<?xml version="1.0" encoding="utf-8"?>
<!-- Generator: Adobe Illustrator 24.2.1, SVG Export Plug-In . SVG Version: 6.00 Build 0)  -->
<svg version="1.1" id="Layer_1" xmlns="http://www.w3.org/2000/svg" xmlns:xlink="http://www.w3.org/1999/xlink" x="0px" y="0px"
	 viewBox="0 0 640 480" style="enable-background:new 0 0 640 480;" xml:space="preserve">
<style type="text/css">
	.st0{fill:url(#SVGID_1_);stroke:#1A1A1A;stroke-width:10;stroke-linecap:round;stroke-linejoin:round;stroke-miterlimit:10;}
</style>
<linearGradient id="SVGID_1_" gradientUnits="userSpaceOnUse" x1="158.7943" y1="240" x2="481.2057" y2="240">
	<stop  offset="0" style="stop-color:#8604D1"/>
	<stop  offset="1" style="stop-color:#D11F00"/>
</linearGradient>
<path class="st0" d="M459.85,224.53c-10.42,2.86-20.75,15.33-22.14,17.06c-13.11-17.22-11.59-73.68-30.44-73.69
	c-19.82-0.01-13.2,56.65-31.29,73.2c-25.89-17.4-29.68-51.82-47-51.82c-17.4,0-23.77,34.27-45.79,51.6
	c-16.62-19.89-14.79-98.9-38.95-98.91c-25.66-0.01-16.9,80.78-40.66,98.95c-1.46-1.76-12.08-14.2-22.79-17.05
	c-9.33-2.29-21.99,4.4-21.99,17.99c0,11.69,13.04,20.48,23.18,16.79c8.04-2.93,15.29-9.73,21.58-17.29
	c22.49,17.75,25.72,45.27,40.66,45.27c14.97,0,20.44-27.15,39.43-44.9c21.42,20.21,17.17,96.28,45.31,96.29
	c29.71,0.01,19.75-77.92,46.92-96.06c17.19,16.22,14.48,56.48,31.37,56.48c16.57,0,15.9-40.23,30.57-56.29
	c6.08,7.51,13.09,14.24,20.85,17.15c9.85,3.69,22.52-5.1,22.52-16.79C481.21,228.93,468.91,222.24,459.85,224.53z"/>
</svg>
